<svg width="28" height="19" viewBox="0 0 28 19" fill="none" xmlns="http://www.w3.org/2000/svg">
<path d="M5.91165 12.9281L1.34034 17.3352C1.15819 16.9975 1.0437 16.5509 1.0437 16.0715V1.63183L9.32868 9.63331M18.2496 10.0963L27.0332 1.60459V16.0715C27.0332 16.54 26.9291 16.9703 26.7469 17.308L20.363 11.1895M1.37468 1.40796L1.34242 1.38672M9.32868 9.63331L11.6549 11.8829C11.7798 12.0027 11.9047 12.1062 12.0296 12.1934C13.2942 13.1738 14.767 13.1738 16.0264 12.1879C16.1461 12.1008 16.271 11.9918 16.3855 11.8829L18.7274 9.62242" stroke="#8D8D8D" stroke-width="1.5" stroke-miterlimit="10" stroke-linecap="round" stroke-linejoin="round"/>
<path d="M20.3228 11.1504L26.7473 17.3076C26.5287 17.727 26.1904 17.9993 25.8158 17.9993H2.26183C1.89754 17.9993 1.56448 17.7433 1.3407 17.3348L7.62625 11.2746" stroke="#8D8D8D" stroke-width="1.5" stroke-miterlimit="10" stroke-linecap="round" stroke-linejoin="round"/>
<path d="M21.2188 1H26.1419C26.4489 1 26.7455 1.19064 26.9589 1.49567C26.9849 1.52835 27.011 1.56648 27.0318 1.60461L18.726 9.62243L16.3841 11.8829C16.2696 11.9918 16.1447 12.1008 16.025 12.1879C14.7656 13.1738 13.2929 13.1738 12.0282 12.1934C11.9033 12.1062 11.7785 12.0027 11.6536 11.8829L9.3273 9.63332L1.04232 1.63184C1.06314 1.59916 1.08916 1.56103 1.11518 1.5229C1.33375 1.19609 1.63039 1 1.95304 1H6.36615M2.3293 17.9998C2.3293 17.9998 0.897123 18.076 1.04388 15.5568" stroke="#8D8D8D" stroke-width="1.5" stroke-miterlimit="10" stroke-linecap="round" stroke-linejoin="round"/>
<path d="M5.97729 1H22.6305" stroke="#8D8D8D" stroke-width="1.5"/>
</svg>
