<svg width="21" height="12" viewBox="0 0 21 12" fill="none" xmlns="http://www.w3.org/2000/svg">
<path d="M19.579 0.85495C19.719 0.38995 19.579 0.0489502 18.917 0.0489502H16.724C16.166 0.0489502 15.911 0.343951 15.771 0.667951C15.771 0.667951 14.656 3.38695 13.076 5.14995C12.566 5.66295 12.333 5.82495 12.055 5.82495C11.916 5.82495 11.714 5.66295 11.714 5.19795V0.85495C11.714 0.29695 11.553 0.0489502 11.088 0.0489502H7.642C7.294 0.0489502 7.084 0.30695 7.084 0.55295C7.084 1.08095 7.874 1.20295 7.955 2.69095V5.91895C7.955 6.62595 7.828 6.75495 7.548 6.75495C6.805 6.75495 4.997 4.02595 3.924 0.90195C3.715 0.29495 3.504 0.0499506 2.944 0.0499506H0.752C0.125 0.0499506 0 0.344951 0 0.668951C0 1.25095 0.743 4.13095 3.461 7.93995C5.273 10.5409 7.824 11.951 10.148 11.951C11.541 11.951 11.713 11.6379 11.713 11.0979V9.13195C11.713 8.50595 11.846 8.37995 12.287 8.37995C12.611 8.37995 13.169 8.54395 14.47 9.79695C15.956 11.283 16.202 11.95 17.037 11.95H19.229C19.855 11.95 20.168 11.6369 19.988 11.0189C19.791 10.4039 19.081 9.50895 18.139 8.44995C17.627 7.84595 16.862 7.19595 16.629 6.87095C16.304 6.45195 16.398 6.26695 16.629 5.89495C16.63 5.89595 19.301 2.13395 19.579 0.85495Z" fill="#8D8D8D"/>
</svg>
